# xmcd
#
# Track frame offsets: 
#        150
#        24047
#        45995
#        68920
#        86370
#        105542
#        127210
#        151032
#        174802
#        192432
#
# Disc length: 2808 seconds
#
# Revision: 3
# Processed by: cddbd v1.5.1PL0 Copyright (c) Steve Scherf et al.
# Submitted via: ExactAudioCopy v0.95a5
#
DISCID=6d0af60a
DTITLE=林冠吟 - 我是火星人
DYEAR=2004
DGENRE=Pop
TTITLE0=秦俑
TTITLE1=信物
TTITLE2=毁灭爱情
TTITLE3=救赎
TTITLE4=灰尘
TTITLE5=梁祝
TTITLE6=火星
TTITLE7=太笨
TTITLE8=红色木乃伊
TTITLE9=到此为止
EXTD=YEAR: 2004
EXTT0=
EXTT1=
EXTT2=
EXTT3=
EXTT4=
EXTT5=
EXTT6=
EXTT7=
EXTT8=
EXTT9=
PLAYORDER=
